M48
INCH,TZ
T1C0.0157
T2C0.0300
T3C0.0315
T4C0.0394
%
G90
G05
T1
X70306Y-36165
X70500Y-31325
X70958Y-33717
X72578Y-33833
X82570Y-30761
X82806Y-30988
X83531Y-31270
X83701Y-40000
X83780Y-43800
X84033Y-30771
X84182Y-38120
T2
X91808Y-22800
X91808Y-23800
X91808Y-24800
X91808Y-25800
X91808Y-26800
X91808Y-27800
X91808Y-28800
X91808Y-29800
X91808Y-30800
X91808Y-31800
X91808Y-32800
X91808Y-33800
X91808Y-34800
X91808Y-35800
X91808Y-36800
X91808Y-37800
X91808Y-38800
X91808Y-39800
X91808Y-40800
X91808Y-41800
X91808Y-42800
X91808Y-43800
X91808Y-44800
X91808Y-45800
X91808Y-46800
X91808Y-47800
X91808Y-48800
X91808Y-49800
X93792Y-22800
X93792Y-23800
X93792Y-24800
X93792Y-25800
X93792Y-26800
X93792Y-27800
X93792Y-28800
X93792Y-29800
X93792Y-30800
X93792Y-31800
X93792Y-32800
X93792Y-33800
X93792Y-34800
X93792Y-35800
X93792Y-36800
X93792Y-37800
X93792Y-38800
X93792Y-39800
X93792Y-40800
X93792Y-41800
X93792Y-42800
X93792Y-43800
X93792Y-44800
X93792Y-45800
X93792Y-46800
X93792Y-47800
X93792Y-48800
X93792Y-49800
T3
X65000Y-29400
X65000Y-32400
X66000Y-29400
X66000Y-32400
X67000Y-29400
X67000Y-32400
X68000Y-29400
X68000Y-32400
X69000Y-29400
X69000Y-32400
X70000Y-29400
X70000Y-32400
X71000Y-29400
X71000Y-32400
X72000Y-29400
X72000Y-32400
X63400Y-35200
X63400Y-37169
X55598Y-40700
X55598Y-43700
X63400Y-40831
X63400Y-42800
X58031Y-43700
X60000Y-43700
X65000Y-40500
X65000Y-43500
X66000Y-40500
X66000Y-43500
X67000Y-40500
X67000Y-43500
X68000Y-40500
X68000Y-43500
X69000Y-40500
X69000Y-43500
X70000Y-40500
X70000Y-43500
X71000Y-40500
X71000Y-43500
X53800Y-40700
X53800Y-43700
X65000Y-35100
X65000Y-38100
X66000Y-35100
X66000Y-38100
X67000Y-35100
X67000Y-38100
X68000Y-35100
X68000Y-38100
X69000Y-35100
X69000Y-38100
X70000Y-35100
X70000Y-38100
X71000Y-35100
X71000Y-38100
X72000Y-35100
X72000Y-38100
X51500Y-41300
X51500Y-42300
X51500Y-43300
X63400Y-29800
X63400Y-31769
X57700Y-36000
X57700Y-37000
X57700Y-38000
X57700Y-39000
X57700Y-40000
X57700Y-41000
X57700Y-42000
X60700Y-36000
X60700Y-37000
X60700Y-38000
X60700Y-39000
X60700Y-40000
X60700Y-41000
X60700Y-42000
X49500Y-40700
X49500Y-43700
T4
X48800Y-45900
X49800Y-45900
X50800Y-45900
X51800Y-45900
X52800Y-45900
X53800Y-45900
X54800Y-45900
X55800Y-45900
X55800Y-23700
X56800Y-23700
X57800Y-23700
X58800Y-23700
X59800Y-23700
X60800Y-23700
X61800Y-23700
X62800Y-23700
X54600Y-37000
X55600Y-37000
X74800Y-26900
X74800Y-27900
X74800Y-28900
X74800Y-29900
X74800Y-30900
X74800Y-31900
X74800Y-32900
X74800Y-33900
X74800Y-34900
X74800Y-35900
X74800Y-36900
X74800Y-37900
X74800Y-38900
X74800Y-39900
X74800Y-40900
X74800Y-41900
X74800Y-42900
X74800Y-43900
X75800Y-26900
X75800Y-27900
X75800Y-28900
X75800Y-29900
X75800Y-30900
X75800Y-31900
X75800Y-32900
X75800Y-33900
X75800Y-34900
X75800Y-35900
X75800Y-36900
X75800Y-37900
X75800Y-38900
X75800Y-39900
X75800Y-40900
X75800Y-41900
X75800Y-42900
X75800Y-43900
X45200Y-23700
X46200Y-23700
X47200Y-23700
X48200Y-23700
X49200Y-23700
X50200Y-23700
X51200Y-23700
X52200Y-23700
X53200Y-23700
X54200Y-23700
X64800Y-26900
X65800Y-26900
X66800Y-26900
X67800Y-26900
X68800Y-26900
X69800Y-26900
X70800Y-26900
X71800Y-26900
X66800Y-49100
X67800Y-49100
X68800Y-49100
X69800Y-49100
X70800Y-49100
X71800Y-49100
X72800Y-49100
X73800Y-49100
X78700Y-26900
X78700Y-27900
X78700Y-28900
X78700Y-29900
X78700Y-30900
X78700Y-31900
X78700Y-32900
X78700Y-33900
X78700Y-34900
X78700Y-35900
X78700Y-36900
X78700Y-37900
X78700Y-38900
X78700Y-39900
X78700Y-40900
X78700Y-41900
X78700Y-42900
X78700Y-43900
X79700Y-26900
X79700Y-27900
X79700Y-28900
X79700Y-29900
X79700Y-30900
X79700Y-31900
X79700Y-32900
X79700Y-33900
X79700Y-34900
X79700Y-35900
X79700Y-36900
X79700Y-37900
X79700Y-38900
X79700Y-39900
X79700Y-40900
X79700Y-41900
X79700Y-42900
X79700Y-43900
X48800Y-49100
X49800Y-49100
X50800Y-49100
X51800Y-49100
X52800Y-49100
X53800Y-49100
X54800Y-49100
X55800Y-49100
X45200Y-26900
X46200Y-26900
X47200Y-26900
X48200Y-26900
X49200Y-26900
X50200Y-26900
X51200Y-26900
X52200Y-26900
X53200Y-26900
X54200Y-26900
X55800Y-26900
X56800Y-26900
X57800Y-26900
X58800Y-26900
X59800Y-26900
X60800Y-26900
X61800Y-26900
X62800Y-26900
X57800Y-49100
X58800Y-49100
X59800Y-49100
X60800Y-49100
X61800Y-49100
X62800Y-49100
X63800Y-49100
X64800Y-49100
X66800Y-45900
X67800Y-45900
X68800Y-45900
X69800Y-45900
X70800Y-45900
X71800Y-45900
X72800Y-45900
X73800Y-45900
X54600Y-38900
X55600Y-38900
X64800Y-23700
X65800Y-23700
X66800Y-23700
X67800Y-23700
X68800Y-23700
X69800Y-23700
X70800Y-23700
X71800Y-23700
X57800Y-45900
X58800Y-45900
X59800Y-45900
X60800Y-45900
X61800Y-45900
X62800Y-45900
X63800Y-45900
X64800Y-45900
T0
M30
