G04 #@! TF.GenerationSoftware,KiCad,Pcbnew,(5.1.4)-1*
G04 #@! TF.CreationDate,2020-02-14T01:18:51+01:00*
G04 #@! TF.ProjectId,ZXShield,5a585368-6965-46c6-942e-6b696361645f,rev?*
G04 #@! TF.SameCoordinates,Original*
G04 #@! TF.FileFunction,Legend,Bot*
G04 #@! TF.FilePolarity,Positive*
%FSLAX46Y46*%
G04 Gerber Fmt 4.6, Leading zero omitted, Abs format (unit mm)*
G04 Created by KiCad (PCBNEW (5.1.4)-1) date 2020-02-14 01:18:51*
%MOMM*%
%LPD*%
G04 APERTURE LIST*
%ADD10C,0.120000*%
%ADD11C,0.150000*%
G04 APERTURE END LIST*
D10*
X198568000Y-112836000D02*
X199898000Y-112836000D01*
X198568000Y-111506000D02*
X198568000Y-112836000D01*
X201168000Y-112836000D02*
X203768000Y-112836000D01*
X201168000Y-110236000D02*
X201168000Y-112836000D01*
X198568000Y-110236000D02*
X201168000Y-110236000D01*
X203768000Y-112836000D02*
X203768000Y-66996000D01*
X198568000Y-110236000D02*
X198568000Y-66996000D01*
X198568000Y-66996000D02*
X203768000Y-66996000D01*
X163262000Y-60198000D02*
X163262000Y-61528000D01*
X163262000Y-61528000D02*
X164592000Y-61528000D01*
X165862000Y-61528000D02*
X183702000Y-61528000D01*
X183702000Y-58868000D02*
X183702000Y-61528000D01*
X165862000Y-58868000D02*
X183702000Y-58868000D01*
X165862000Y-58868000D02*
X165862000Y-61528000D01*
X140402000Y-60198000D02*
X140402000Y-61528000D01*
X140402000Y-61528000D02*
X141732000Y-61528000D01*
X143002000Y-61528000D02*
X160842000Y-61528000D01*
X160842000Y-58868000D02*
X160842000Y-61528000D01*
X143002000Y-58868000D02*
X160842000Y-58868000D01*
X143002000Y-58868000D02*
X143002000Y-61528000D01*
X113478000Y-60198000D02*
X113478000Y-61528000D01*
X113478000Y-61528000D02*
X114808000Y-61528000D01*
X116078000Y-61528000D02*
X138998000Y-61528000D01*
X138998000Y-58868000D02*
X138998000Y-61528000D01*
X116078000Y-58868000D02*
X138998000Y-58868000D01*
X116078000Y-58868000D02*
X116078000Y-61528000D01*
X168342000Y-124714000D02*
X168342000Y-126044000D01*
X168342000Y-126044000D02*
X169672000Y-126044000D01*
X170942000Y-126044000D02*
X188782000Y-126044000D01*
X188782000Y-123384000D02*
X188782000Y-126044000D01*
X170942000Y-123384000D02*
X188782000Y-123384000D01*
X170942000Y-123384000D02*
X170942000Y-126044000D01*
X145482000Y-124714000D02*
X145482000Y-126044000D01*
X145482000Y-126044000D02*
X146812000Y-126044000D01*
X148082000Y-126044000D02*
X165922000Y-126044000D01*
X165922000Y-123384000D02*
X165922000Y-126044000D01*
X148082000Y-123384000D02*
X165922000Y-123384000D01*
X148082000Y-123384000D02*
X148082000Y-126044000D01*
X122622000Y-124714000D02*
X122622000Y-126044000D01*
X122622000Y-126044000D02*
X123952000Y-126044000D01*
X125222000Y-126044000D02*
X143062000Y-126044000D01*
X143062000Y-123384000D02*
X143062000Y-126044000D01*
X125222000Y-123384000D02*
X143062000Y-123384000D01*
X125222000Y-123384000D02*
X125222000Y-126044000D01*
X163262000Y-66996000D02*
X163262000Y-68326000D01*
X164592000Y-66996000D02*
X163262000Y-66996000D01*
X165862000Y-66996000D02*
X165862000Y-69656000D01*
X165862000Y-69656000D02*
X183702000Y-69656000D01*
X165862000Y-66996000D02*
X183702000Y-66996000D01*
X183702000Y-66996000D02*
X183702000Y-69656000D01*
X140402000Y-66996000D02*
X140402000Y-68326000D01*
X141732000Y-66996000D02*
X140402000Y-66996000D01*
X143002000Y-66996000D02*
X143002000Y-69656000D01*
X143002000Y-69656000D02*
X160842000Y-69656000D01*
X143002000Y-66996000D02*
X160842000Y-66996000D01*
X160842000Y-66996000D02*
X160842000Y-69656000D01*
X113478000Y-66996000D02*
X113478000Y-68326000D01*
X114808000Y-66996000D02*
X113478000Y-66996000D01*
X116078000Y-66996000D02*
X116078000Y-69656000D01*
X116078000Y-69656000D02*
X138998000Y-69656000D01*
X116078000Y-66996000D02*
X138998000Y-66996000D01*
X138998000Y-66996000D02*
X138998000Y-69656000D01*
X168342000Y-115256000D02*
X168342000Y-116586000D01*
X169672000Y-115256000D02*
X168342000Y-115256000D01*
X170942000Y-115256000D02*
X170942000Y-117916000D01*
X170942000Y-117916000D02*
X188782000Y-117916000D01*
X170942000Y-115256000D02*
X188782000Y-115256000D01*
X188782000Y-115256000D02*
X188782000Y-117916000D01*
X145482000Y-115256000D02*
X145482000Y-116586000D01*
X146812000Y-115256000D02*
X145482000Y-115256000D01*
X148082000Y-115256000D02*
X148082000Y-117916000D01*
X148082000Y-117916000D02*
X165922000Y-117916000D01*
X148082000Y-115256000D02*
X165922000Y-115256000D01*
X165922000Y-115256000D02*
X165922000Y-117916000D01*
X122622000Y-115256000D02*
X122622000Y-116586000D01*
X123952000Y-115256000D02*
X122622000Y-115256000D01*
X125222000Y-115256000D02*
X125222000Y-117916000D01*
X125222000Y-117916000D02*
X143062000Y-117916000D01*
X125222000Y-115256000D02*
X143062000Y-115256000D01*
X143062000Y-115256000D02*
X143062000Y-117916000D01*
X188662000Y-112836000D02*
X189992000Y-112836000D01*
X188662000Y-111506000D02*
X188662000Y-112836000D01*
X191262000Y-112836000D02*
X193862000Y-112836000D01*
X191262000Y-110236000D02*
X191262000Y-112836000D01*
X188662000Y-110236000D02*
X191262000Y-110236000D01*
X193862000Y-112836000D02*
X193862000Y-66996000D01*
X188662000Y-110236000D02*
X188662000Y-66996000D01*
X188662000Y-66996000D02*
X193862000Y-66996000D01*
D11*
X201906095Y-114288380D02*
X201906095Y-113288380D01*
X201525142Y-113288380D01*
X201429904Y-113336000D01*
X201382285Y-113383619D01*
X201334666Y-113478857D01*
X201334666Y-113621714D01*
X201382285Y-113716952D01*
X201429904Y-113764571D01*
X201525142Y-113812190D01*
X201906095Y-113812190D01*
X200763238Y-113716952D02*
X200858476Y-113669333D01*
X200906095Y-113621714D01*
X200953714Y-113526476D01*
X200953714Y-113478857D01*
X200906095Y-113383619D01*
X200858476Y-113336000D01*
X200763238Y-113288380D01*
X200572761Y-113288380D01*
X200477523Y-113336000D01*
X200429904Y-113383619D01*
X200382285Y-113478857D01*
X200382285Y-113526476D01*
X200429904Y-113621714D01*
X200477523Y-113669333D01*
X200572761Y-113716952D01*
X200763238Y-113716952D01*
X200858476Y-113764571D01*
X200906095Y-113812190D01*
X200953714Y-113907428D01*
X200953714Y-114097904D01*
X200906095Y-114193142D01*
X200858476Y-114240761D01*
X200763238Y-114288380D01*
X200572761Y-114288380D01*
X200477523Y-114240761D01*
X200429904Y-114193142D01*
X200382285Y-114097904D01*
X200382285Y-113907428D01*
X200429904Y-113812190D01*
X200477523Y-113764571D01*
X200572761Y-113716952D01*
X162274380Y-58983714D02*
X161274380Y-58983714D01*
X161274380Y-59364666D01*
X161322000Y-59459904D01*
X161369619Y-59507523D01*
X161464857Y-59555142D01*
X161607714Y-59555142D01*
X161702952Y-59507523D01*
X161750571Y-59459904D01*
X161798190Y-59364666D01*
X161798190Y-58983714D01*
X162274380Y-60507523D02*
X162274380Y-59936095D01*
X162274380Y-60221809D02*
X161274380Y-60221809D01*
X161417238Y-60126571D01*
X161512476Y-60031333D01*
X161560095Y-59936095D01*
X161607714Y-61364666D02*
X162274380Y-61364666D01*
X161226761Y-61126571D02*
X161941047Y-60888476D01*
X161941047Y-61507523D01*
X139414380Y-58983714D02*
X138414380Y-58983714D01*
X138414380Y-59364666D01*
X138462000Y-59459904D01*
X138509619Y-59507523D01*
X138604857Y-59555142D01*
X138747714Y-59555142D01*
X138842952Y-59507523D01*
X138890571Y-59459904D01*
X138938190Y-59364666D01*
X138938190Y-58983714D01*
X139414380Y-60507523D02*
X139414380Y-59936095D01*
X139414380Y-60221809D02*
X138414380Y-60221809D01*
X138557238Y-60126571D01*
X138652476Y-60031333D01*
X138700095Y-59936095D01*
X138414380Y-60840857D02*
X138414380Y-61459904D01*
X138795333Y-61126571D01*
X138795333Y-61269428D01*
X138842952Y-61364666D01*
X138890571Y-61412285D01*
X138985809Y-61459904D01*
X139223904Y-61459904D01*
X139319142Y-61412285D01*
X139366761Y-61364666D01*
X139414380Y-61269428D01*
X139414380Y-60983714D01*
X139366761Y-60888476D01*
X139319142Y-60840857D01*
X112490380Y-58983714D02*
X111490380Y-58983714D01*
X111490380Y-59364666D01*
X111538000Y-59459904D01*
X111585619Y-59507523D01*
X111680857Y-59555142D01*
X111823714Y-59555142D01*
X111918952Y-59507523D01*
X111966571Y-59459904D01*
X112014190Y-59364666D01*
X112014190Y-58983714D01*
X112490380Y-60507523D02*
X112490380Y-59936095D01*
X112490380Y-60221809D02*
X111490380Y-60221809D01*
X111633238Y-60126571D01*
X111728476Y-60031333D01*
X111776095Y-59936095D01*
X111585619Y-60888476D02*
X111538000Y-60936095D01*
X111490380Y-61031333D01*
X111490380Y-61269428D01*
X111538000Y-61364666D01*
X111585619Y-61412285D01*
X111680857Y-61459904D01*
X111776095Y-61459904D01*
X111918952Y-61412285D01*
X112490380Y-60840857D01*
X112490380Y-61459904D01*
X167354380Y-123499714D02*
X166354380Y-123499714D01*
X166354380Y-123880666D01*
X166402000Y-123975904D01*
X166449619Y-124023523D01*
X166544857Y-124071142D01*
X166687714Y-124071142D01*
X166782952Y-124023523D01*
X166830571Y-123975904D01*
X166878190Y-123880666D01*
X166878190Y-123499714D01*
X167354380Y-125023523D02*
X167354380Y-124452095D01*
X167354380Y-124737809D02*
X166354380Y-124737809D01*
X166497238Y-124642571D01*
X166592476Y-124547333D01*
X166640095Y-124452095D01*
X167354380Y-125975904D02*
X167354380Y-125404476D01*
X167354380Y-125690190D02*
X166354380Y-125690190D01*
X166497238Y-125594952D01*
X166592476Y-125499714D01*
X166640095Y-125404476D01*
X144494380Y-123499714D02*
X143494380Y-123499714D01*
X143494380Y-123880666D01*
X143542000Y-123975904D01*
X143589619Y-124023523D01*
X143684857Y-124071142D01*
X143827714Y-124071142D01*
X143922952Y-124023523D01*
X143970571Y-123975904D01*
X144018190Y-123880666D01*
X144018190Y-123499714D01*
X144494380Y-125023523D02*
X144494380Y-124452095D01*
X144494380Y-124737809D02*
X143494380Y-124737809D01*
X143637238Y-124642571D01*
X143732476Y-124547333D01*
X143780095Y-124452095D01*
X143494380Y-125642571D02*
X143494380Y-125737809D01*
X143542000Y-125833047D01*
X143589619Y-125880666D01*
X143684857Y-125928285D01*
X143875333Y-125975904D01*
X144113428Y-125975904D01*
X144303904Y-125928285D01*
X144399142Y-125880666D01*
X144446761Y-125833047D01*
X144494380Y-125737809D01*
X144494380Y-125642571D01*
X144446761Y-125547333D01*
X144399142Y-125499714D01*
X144303904Y-125452095D01*
X144113428Y-125404476D01*
X143875333Y-125404476D01*
X143684857Y-125452095D01*
X143589619Y-125499714D01*
X143542000Y-125547333D01*
X143494380Y-125642571D01*
X121634380Y-123975904D02*
X120634380Y-123975904D01*
X120634380Y-124356857D01*
X120682000Y-124452095D01*
X120729619Y-124499714D01*
X120824857Y-124547333D01*
X120967714Y-124547333D01*
X121062952Y-124499714D01*
X121110571Y-124452095D01*
X121158190Y-124356857D01*
X121158190Y-123975904D01*
X121634380Y-125023523D02*
X121634380Y-125214000D01*
X121586761Y-125309238D01*
X121539142Y-125356857D01*
X121396285Y-125452095D01*
X121205809Y-125499714D01*
X120824857Y-125499714D01*
X120729619Y-125452095D01*
X120682000Y-125404476D01*
X120634380Y-125309238D01*
X120634380Y-125118761D01*
X120682000Y-125023523D01*
X120729619Y-124975904D01*
X120824857Y-124928285D01*
X121062952Y-124928285D01*
X121158190Y-124975904D01*
X121205809Y-125023523D01*
X121253428Y-125118761D01*
X121253428Y-125309238D01*
X121205809Y-125404476D01*
X121158190Y-125452095D01*
X121062952Y-125499714D01*
X162714380Y-67587904D02*
X161714380Y-67587904D01*
X161714380Y-67968857D01*
X161762000Y-68064095D01*
X161809619Y-68111714D01*
X161904857Y-68159333D01*
X162047714Y-68159333D01*
X162142952Y-68111714D01*
X162190571Y-68064095D01*
X162238190Y-67968857D01*
X162238190Y-67587904D01*
X161714380Y-68492666D02*
X161714380Y-69159333D01*
X162714380Y-68730761D01*
X139854380Y-67587904D02*
X138854380Y-67587904D01*
X138854380Y-67968857D01*
X138902000Y-68064095D01*
X138949619Y-68111714D01*
X139044857Y-68159333D01*
X139187714Y-68159333D01*
X139282952Y-68111714D01*
X139330571Y-68064095D01*
X139378190Y-67968857D01*
X139378190Y-67587904D01*
X138854380Y-69016476D02*
X138854380Y-68826000D01*
X138902000Y-68730761D01*
X138949619Y-68683142D01*
X139092476Y-68587904D01*
X139282952Y-68540285D01*
X139663904Y-68540285D01*
X139759142Y-68587904D01*
X139806761Y-68635523D01*
X139854380Y-68730761D01*
X139854380Y-68921238D01*
X139806761Y-69016476D01*
X139759142Y-69064095D01*
X139663904Y-69111714D01*
X139425809Y-69111714D01*
X139330571Y-69064095D01*
X139282952Y-69016476D01*
X139235333Y-68921238D01*
X139235333Y-68730761D01*
X139282952Y-68635523D01*
X139330571Y-68587904D01*
X139425809Y-68540285D01*
X112930380Y-67587904D02*
X111930380Y-67587904D01*
X111930380Y-67968857D01*
X111978000Y-68064095D01*
X112025619Y-68111714D01*
X112120857Y-68159333D01*
X112263714Y-68159333D01*
X112358952Y-68111714D01*
X112406571Y-68064095D01*
X112454190Y-67968857D01*
X112454190Y-67587904D01*
X111930380Y-69064095D02*
X111930380Y-68587904D01*
X112406571Y-68540285D01*
X112358952Y-68587904D01*
X112311333Y-68683142D01*
X112311333Y-68921238D01*
X112358952Y-69016476D01*
X112406571Y-69064095D01*
X112501809Y-69111714D01*
X112739904Y-69111714D01*
X112835142Y-69064095D01*
X112882761Y-69016476D01*
X112930380Y-68921238D01*
X112930380Y-68683142D01*
X112882761Y-68587904D01*
X112835142Y-68540285D01*
X167794380Y-115847904D02*
X166794380Y-115847904D01*
X166794380Y-116228857D01*
X166842000Y-116324095D01*
X166889619Y-116371714D01*
X166984857Y-116419333D01*
X167127714Y-116419333D01*
X167222952Y-116371714D01*
X167270571Y-116324095D01*
X167318190Y-116228857D01*
X167318190Y-115847904D01*
X167127714Y-117276476D02*
X167794380Y-117276476D01*
X166746761Y-117038380D02*
X167461047Y-116800285D01*
X167461047Y-117419333D01*
X144934380Y-115847904D02*
X143934380Y-115847904D01*
X143934380Y-116228857D01*
X143982000Y-116324095D01*
X144029619Y-116371714D01*
X144124857Y-116419333D01*
X144267714Y-116419333D01*
X144362952Y-116371714D01*
X144410571Y-116324095D01*
X144458190Y-116228857D01*
X144458190Y-115847904D01*
X143934380Y-116752666D02*
X143934380Y-117371714D01*
X144315333Y-117038380D01*
X144315333Y-117181238D01*
X144362952Y-117276476D01*
X144410571Y-117324095D01*
X144505809Y-117371714D01*
X144743904Y-117371714D01*
X144839142Y-117324095D01*
X144886761Y-117276476D01*
X144934380Y-117181238D01*
X144934380Y-116895523D01*
X144886761Y-116800285D01*
X144839142Y-116752666D01*
X122074380Y-115847904D02*
X121074380Y-115847904D01*
X121074380Y-116228857D01*
X121122000Y-116324095D01*
X121169619Y-116371714D01*
X121264857Y-116419333D01*
X121407714Y-116419333D01*
X121502952Y-116371714D01*
X121550571Y-116324095D01*
X121598190Y-116228857D01*
X121598190Y-115847904D01*
X121169619Y-116800285D02*
X121122000Y-116847904D01*
X121074380Y-116943142D01*
X121074380Y-117181238D01*
X121122000Y-117276476D01*
X121169619Y-117324095D01*
X121264857Y-117371714D01*
X121360095Y-117371714D01*
X121502952Y-117324095D01*
X122074380Y-116752666D01*
X122074380Y-117371714D01*
X192000095Y-114288380D02*
X192000095Y-113288380D01*
X191619142Y-113288380D01*
X191523904Y-113336000D01*
X191476285Y-113383619D01*
X191428666Y-113478857D01*
X191428666Y-113621714D01*
X191476285Y-113716952D01*
X191523904Y-113764571D01*
X191619142Y-113812190D01*
X192000095Y-113812190D01*
X190476285Y-114288380D02*
X191047714Y-114288380D01*
X190762000Y-114288380D02*
X190762000Y-113288380D01*
X190857238Y-113431238D01*
X190952476Y-113526476D01*
X191047714Y-113574095D01*
M02*
